<svg width="528" height="328" viewBox="0 0 528 328" fill="none" xmlns="http://www.w3.org/2000/svg">
<path d="M401.969 6.23224L400.202 4.46447L398.434 6.23224L368.698 35.9677C350.896 53.77 350.896 82.6334 368.698 100.436L398.434 130.171L400.202 131.939L401.969 130.171L431.705 100.436C449.507 82.6333 449.507 53.77 431.705 35.9677L401.969 6.23224Z" fill="#4285F5" stroke="black" stroke-width="5"/>
<path d="M522.171 129.969L523.939 128.202L522.171 126.434L492.436 96.6985C474.633 78.8962 445.77 78.8962 427.968 96.6985L398.232 126.434L396.464 128.202L398.232 129.969L427.968 159.705C445.77 177.507 474.633 177.507 492.436 159.705L522.171 129.969Z" fill="#0C49C2" stroke="black" stroke-width="5"/>
<mask id="path-3-inside-1_1_217" fill="white">
<path fill-rule="evenodd" clip-rule="evenodd" d="M50 128C22.3858 128 0 150.386 0 178V219.98C29.179 218.985 69.8382 220.517 116 229.015L0.607749 239.088C6.12432 289.099 48.5192 328 100 328H200C310.457 328 400 238.457 400 128H50Z"/>
</mask>
<path fill-rule="evenodd" clip-rule="evenodd" d="M50 128C22.3858 128 0 150.386 0 178V219.98C29.179 218.985 69.8382 220.517 116 229.015L0.607749 239.088C6.12432 289.099 48.5192 328 100 328H200C310.457 328 400 238.457 400 128H50Z" fill="#4285F5"/>
<path d="M0 219.98H-5V225.154L0.170534 224.978L0 219.98ZM116 229.015L116.435 233.996L116.905 224.098L116 229.015ZM0.607749 239.088L0.172945 234.107L-4.92296 234.552L-4.36211 239.636L0.607749 239.088ZM400 128H405V123H400V128ZM5 178C5 153.147 25.1472 133 50 133V123C19.6243 123 -5 147.624 -5 178H5ZM5 219.98V178H-5V219.98H5ZM116.905 224.098C70.3465 215.527 29.3231 213.977 -0.170534 214.983L0.170534 224.978C29.0348 223.993 69.33 225.508 115.095 233.932L116.905 224.098ZM1.04255 244.069L116.435 233.996L115.565 224.034L0.172945 234.107L1.04255 244.069ZM100 323C51.0966 323 10.8178 286.044 5.5776 238.54L-4.36211 239.636C1.43088 292.153 45.9418 333 100 333V323ZM200 323H100V333H200V323ZM395 128C395 235.696 307.696 323 200 323V333C313.218 333 405 241.218 405 128H395ZM50 133H400V123H50V133Z" fill="black" mask="url(#path-3-inside-1_1_217)"/>
<rect x="95" y="79" width="38" height="38" stroke="#4285F5" stroke-width="10"/>
<rect x="151" y="79" width="38" height="38" stroke="#0C49C2" stroke-width="10"/>
<rect x="205" y="79" width="38" height="38" stroke="#4285F5" stroke-width="10"/>
<rect x="151" y="25" width="38" height="38" stroke="#4285F5" stroke-width="10"/>
<rect x="205" y="25" width="38" height="38" stroke="#0C49C2" stroke-width="10"/>
<mask id="path-10-inside-2_1_217" fill="white">
<path fill-rule="evenodd" clip-rule="evenodd" d="M50 128C22.3858 128 0 150.386 0 178V228C0 228.001 1.32407e-08 228.001 1.32407e-08 228.002C108.513 228.24 210.963 254.293 301.535 300.347C360.467 265.553 400 201.393 400 128H50Z"/>
</mask>
<path fill-rule="evenodd" clip-rule="evenodd" d="M50 128C22.3858 128 0 150.386 0 178V228C0 228.001 1.32407e-08 228.001 1.32407e-08 228.002C108.513 228.24 210.963 254.293 301.535 300.347C360.467 265.553 400 201.393 400 128H50Z" fill="#0C49C2"/>
<path d="M1.32407e-08 228.002H-5V232.991L-0.010965 233.002L1.32407e-08 228.002ZM301.535 300.347L299.268 304.804L301.714 306.047L304.077 304.652L301.535 300.347ZM400 128H405V123H400V128ZM5 178C5 153.147 25.1472 133 50 133V123C19.6243 123 -5 147.624 -5 178H5ZM5 228V178H-5V228H5ZM5 228.002C5 228.001 5 228.001 5 228.001C5 228.001 5 228 5 228H-5C-5 228 -5 228.001 -5 228.001C-5 228.001 -5 228.001 -5 228.002H5ZM-0.010965 233.002C107.7 233.238 209.379 259.097 299.268 304.804L303.801 295.89C212.546 249.489 109.325 223.241 0.010965 223.002L-0.010965 233.002ZM395 128C395 199.552 356.465 262.109 298.993 296.041L304.077 304.652C364.47 268.996 405 203.234 405 128H395ZM50 133H400V123H50V133Z" fill="black" mask="url(#path-10-inside-2_1_217)"/>
</svg>
